<?xml version="1.0" standalone="no"?>
<!DOCTYPE svg PUBLIC "-//W3C//DTD SVG 20010904//EN"
 "http://www.w3.org/TR/2001/REC-SVG-20010904/DTD/svg10.dtd">
<svg version="1.0" xmlns="http://www.w3.org/2000/svg"
 width="270.000000pt" height="270.000000pt" viewBox="0 0 270.000000 270.000000"
 preserveAspectRatio="xMidYMid meet">
<metadata>
Created by potrace 1.14, written by Peter Selinger 2001-2017
</metadata>
<g transform="translate(0.000000,270.000000) scale(0.100000,-0.100000)"
fill="#000000" stroke="none">
<path d="M710 2475 l0 -65 100 0 100 0 0 65 0 65 -100 0 -100 0 0 -65z"/>
<path d="M0 2085 l0 -195 55 0 55 0 0 -130 0 -130 -55 0 -55 0 0 -455 0 -455
55 0 55 0 0 -65 0 -65 -55 0 -55 0 0 -135 0 -135 55 0 55 0 0 -65 0 -65 100 0
100 0 0 -65 0 -65 100 0 100 0 0 -30 0 -30 100 0 100 0 0 95 0 95 100 0 100 0
0 -65 0 -65 100 0 100 0 0 65 0 65 -100 0 -100 0 0 65 0 65 195 0 195 0 0 70
0 70 100 0 100 0 0 65 0 65 100 0 100 0 0 -65 0 -65 100 0 100 0 0 65 0 65
100 0 100 0 0 195 0 195 100 0 100 0 0 65 0 65 -100 0 -100 0 0 -65 0 -65
-200 0 -200 0 0 65 0 65 -100 0 -100 0 0 85 0 85 -100 0 c-93 0 -100 -1 -100
-20 0 -19 -7 -20 -95 -20 -88 0 -95 1 -95 20 0 18 -7 20 -75 20 l-75 0 0 110
0 110 -25 0 c-26 0 -30 13 -25 98 l2 32 -301 0 -301 0 0 65 0 65 100 0 100 0
0 65 0 65 -100 0 -100 0 0 65 0 65 100 0 100 0 0 65 0 65 -100 0 -100 0 0 -65
0 -65 -100 0 -100 0 0 130 0 130 -55 0 -55 0 0 -195z m710 -650 l0 -65 -100 0
-100 0 0 65 0 65 100 0 100 0 0 -65z m0 -325 l0 -130 -100 0 -100 0 0 130 0
130 100 0 100 0 0 -130z m-400 -195 l0 -65 -100 0 -100 0 0 65 0 65 100 0 100
0 0 -65z m1590 -195 l0 -130 -100 0 -100 0 0 65 0 65 -295 0 -295 0 0 65 0 65
395 0 395 0 0 -130z m-790 -195 l0 -65 -100 0 -100 0 0 65 0 65 100 0 100 0 0
-65z m-800 -135 l0 -70 -100 0 -100 0 0 70 0 70 100 0 100 0 0 -70z m400 0 l0
-70 -100 0 -100 0 0 70 0 70 100 0 100 0 0 -70z"/>
<path d="M710 2150 l0 -130 100 0 100 0 0 130 0 130 -100 0 -100 0 0 -130z"/>
<path d="M710 1825 l0 -65 125 0 125 0 0 38 0 39 113 6 c61 4 138 7 170 7 50
0 57 2 57 20 0 20 -7 20 -295 20 l-295 0 0 -65z"/>
<path d="M970 1727 c0 -97 -1 -105 -25 -127 -14 -13 -25 -29 -25 -35 0 -6 11
-22 25 -35 24 -22 25 -30 25 -127 l0 -103 315 0 315 0 0 265 0 265 -315 0
-315 0 0 -103z m190 38 c6 -16 6 -34 0 -50 -8 -20 -16 -25 -45 -25 -35 0 -35
0 -35 45 0 33 -4 45 -15 45 -11 0 -15 -12 -15 -45 0 -25 -4 -45 -10 -45 -5 0
-10 20 -10 44 0 34 -4 46 -17 49 -10 3 17 5 60 6 74 1 78 0 87 -24z m147 9 c3
-8 -4 -28 -15 -44 l-22 -29 23 -4 c13 -3 7 -5 -16 -6 -41 -1 -42 5 -4 46 22
25 14 47 -15 37 -14 -4 -18 -2 -14 5 11 17 56 13 63 -5z m68 5 c4 -6 0 -9 -10
-7 -26 4 -30 -18 -5 -25 32 -8 24 -52 -10 -52 -21 0 -26 5 -28 33 -2 19 -1 40
2 48 6 16 42 19 51 3z m-355 -209 c0 -27 -4 -50 -10 -50 -5 0 -10 23 -10 50 0
28 5 50 10 50 6 0 10 -22 10 -50z m60 18 l20 -33 0 33 c0 17 5 32 10 32 6 0
10 -22 10 -50 0 -27 -4 -50 -9 -50 -5 0 -18 15 -30 33 l-21 32 0 -32 c0 -18
-4 -33 -10 -33 -5 0 -10 23 -10 50 0 58 12 63 40 18z m118 25 c-14 -3 -18 -15
-18 -49 0 -24 -4 -44 -10 -44 -5 0 -10 20 -10 44 0 34 -4 46 -17 49 -10 3 2 5
27 5 25 0 37 -2 28 -5z m122 -43 c0 -27 -4 -50 -10 -50 -5 0 -10 16 -10 36 0
21 -4 33 -10 29 -14 -9 -13 8 2 23 22 22 28 13 28 -38z m75 25 c1 -11 4 -26 9
-33 11 -18 -13 -44 -38 -40 -24 3 -37 48 -14 48 10 0 10 2 -1 9 -21 14 -5 43
21 39 15 -2 23 -10 23 -23z m-320 -175 c0 -20 -6 -26 -27 -28 -20 -2 -28 -9
-28 -23 0 -10 -4 -19 -10 -19 -5 0 -10 23 -10 51 l0 50 38 -3 c32 -3 37 -6 37
-28z m35 -20 c0 -27 -4 -50 -10 -50 -5 0 -10 23 -10 50 0 28 5 50 10 50 6 0
10 -22 10 -50z m457 34 c3 -8 -4 -28 -15 -44 l-22 -29 23 -4 c13 -3 7 -5 -16
-6 -41 -1 -42 5 -4 46 22 25 14 47 -15 37 -14 -4 -18 -2 -14 5 11 17 56 13 63
-5z m-389 -51 c3 -31 1 -33 -27 -33 -24 0 -31 4 -31 20 0 11 6 20 14 20 8 0
18 5 22 11 4 8 -1 9 -16 4 -16 -5 -20 -4 -15 5 4 6 17 10 28 8 17 -2 23 -11
25 -35z m31 15 l8 -22 5 22 c4 12 11 22 17 22 16 0 -21 -92 -39 -98 -12 -3
-12 -2 -3 8 9 9 8 22 -2 51 -9 23 -10 39 -4 39 5 0 13 -10 18 -22z m101 18 c0
-2 3 -11 6 -20 5 -12 0 -16 -21 -16 -15 0 -24 -4 -20 -10 4 -6 16 -8 28 -4 17
5 19 3 11 -6 -28 -28 -80 14 -55 44 12 14 51 23 51 12z m110 -7 c0 -6 -7 -9
-15 -5 -8 3 -15 2 -15 -3 0 -5 9 -11 21 -14 12 -3 19 -12 17 -19 -6 -16 -58
-24 -58 -8 0 7 8 9 20 5 11 -4 20 -2 20 4 0 6 -7 11 -15 11 -9 0 -18 7 -21 15
-10 25 -24 17 -24 -15 0 -16 -4 -30 -10 -30 -5 0 -10 16 -10 35 0 35 0 35 45
35 26 0 45 -5 45 -11z"/>
<path d="M1100 1740 c0 -28 4 -40 15 -40 22 0 38 36 25 60 -19 35 -40 24 -40
-20z"/>
<path d="M1340 1720 c0 -11 5 -20 10 -20 6 0 10 9 10 20 0 11 -4 20 -10 20 -5
0 -10 -9 -10 -20z"/>
<path d="M1360 1595 c0 -8 5 -15 10 -15 6 0 10 7 10 15 0 8 -4 15 -10 15 -5 0
-10 -7 -10 -15z"/>
<path d="M1360 1550 c0 -13 5 -20 13 -17 6 2 12 10 12 17 0 7 -6 15 -12 18 -8
2 -13 -5 -13 -18z"/>
<path d="M1020 1420 c0 -15 5 -20 18 -18 9 2 17 10 17 18 0 8 -8 16 -17 18
-13 2 -18 -3 -18 -18z"/>
<path d="M1140 1369 c0 -5 5 -7 10 -4 6 3 10 8 10 11 0 2 -4 4 -10 4 -5 0 -10
-5 -10 -11z"/>
<path d="M1275 1400 c-3 -5 1 -10 10 -10 9 0 13 5 10 10 -3 6 -8 10 -10 10 -2
0 -7 -4 -10 -10z"/>
<path d="M1700 1565 l0 -65 -45 0 -45 0 0 -65 0 -65 45 0 45 0 0 -65 0 -65
100 0 100 0 0 65 0 65 -100 0 -100 0 0 65 0 65 100 0 100 0 0 65 0 65 -100 0
-100 0 0 -65z"/>
<path d="M2100 1370 l0 -130 100 0 100 0 0 130 0 130 -100 0 -100 0 0 -130z"/>
<path d="M2500 1045 l0 -65 100 0 100 0 0 65 0 65 -100 0 -100 0 0 -65z"/>
<path d="M2300 655 l0 -65 100 0 100 0 0 -65 0 -65 100 0 100 0 0 65 0 65
-100 0 -100 0 0 65 0 65 -100 0 -100 0 0 -65z"/>
<path d="M1700 255 l0 -65 100 0 100 0 0 65 0 65 -100 0 -100 0 0 -65z"/>
<path d="M2300 255 l0 -65 -100 0 -100 0 0 -65 0 -65 100 0 100 0 0 65 0 65
100 0 100 0 0 -65 0 -65 100 0 100 0 0 65 0 65 -100 0 -100 0 0 65 0 65 -100
0 -100 0 0 -65z"/>
<path d="M1300 125 l0 -65 100 0 100 0 0 65 0 65 -100 0 -100 0 0 -65z"/>
<path d="M0 30 c0 -30 1 -30 55 -30 54 0 55 0 55 30 0 30 -1 30 -55 30 -54 0
-55 0 -55 -30z"/>
</g>
</svg>
